<?xml version="1.0" encoding="iso-8859-1"?>
<!-- Generator: Adobe Illustrator 19.0.0, SVG Export Plug-In . SVG Version: 6.00 Build 0)  -->
<svg version="1.1" id="&#x56FE;&#x5C42;_1" xmlns="http://www.w3.org/2000/svg" xmlns:xlink="http://www.w3.org/1999/xlink" x="0px"
	 y="0px" viewBox="0 0 113.386 113.386" style="enable-background:new 0 0 113.386 113.386;" xml:space="preserve">
<g>
	<path d="M81.7,81.632c-6.23,3.374-13.262,5.055-21.101,5.055c-9.032,0-16.301-2.715-21.818-8.141
		c-5.518-5.426-8.276-12.67-8.276-21.74c0-9.168,3.049-16.704,9.144-22.603c6.093-5.901,13.902-8.85,23.444-8.85
		c6.739,0,12.444,1.022,17.115,3.063v8.276c-4.987-2.988-10.935-4.483-17.841-4.483c-6.798,0-12.396,2.21-16.798,6.629
		c-4.404,4.419-6.606,10.24-6.606,17.467c0,7.436,2.027,13.22,6.083,17.361c4.054,4.133,9.531,6.206,16.438,6.206
		c4.754,0,8.791-0.876,12.119-2.603V61.21H60.073v-6.781H81.7V81.632z"/>
</g>
<rect x="55.704" y="13.797" width="7.856" height="13.516"/>
<rect x="55.704" y="85.644" width="7.856" height="13.028"/>
</svg>
